<?xml version="1.0" standalone="no"?>
<!DOCTYPE svg PUBLIC "-//W3C//DTD SVG 1.1//EN" "http://www.w3.org/Graphics/SVG/1.1/DTD/svg11.dtd" >
<svg xmlns="http://www.w3.org/2000/svg" xmlns:xlink="http://www.w3.org/1999/xlink" version="1.1">
<metadata>
Created by FontForge 20170731 at Tue Apr 27 02:38:26 2021
 By Aleksey,,,
(c) 2021 eafonts.com. All rights reserved.
</metadata>
<defs>
<font id="cayano-Regular" horiz-adv-x="553" >
  <font-face 
    font-family="cayano"
    font-weight="400"
    font-stretch="normal"
    units-per-em="1000"
    panose-1="0 0 0 0 0 0 0 0 0 0"
    ascent="800"
    descent="-200"
    x-height="499"
    cap-height="700"
    bbox="0 -205 881 800"
    underline-thickness="50"
    underline-position="-125"
    unicode-range="U+000A-2122"
  />
<missing-glyph horiz-adv-x="924" 
 />
    <glyph glyph-name=".notdef" horiz-adv-x="924" 
 />
    <glyph glyph-name=".null" horiz-adv-x="150" 
 />
    <glyph glyph-name="uni000D" unicode="&#xd;" horiz-adv-x="250" 
 />
    <glyph glyph-name="uni000A" unicode="&#xa;" horiz-adv-x="333" 
 />
    <glyph glyph-name="space" unicode=" " horiz-adv-x="658" 
 />
    <glyph glyph-name="space" unicode="&#xa0;" horiz-adv-x="658" 
 />
    <glyph glyph-name="exclam" unicode="!" horiz-adv-x="82" 
d="M1 697h31v-572h-31v572zM0 73h31v-73h-31v73z" />
    <glyph glyph-name="numbersign" unicode="#" horiz-adv-x="530" 
d="M95 283h-95v30h102l42 173h-97v30h104l43 181h30l-43 -181h168l44 181h30l-43 -181h99v-30h-106l-41 -173h102v-30h-110l-64 -283h-31l66 283h-169l-66 -283h-30zM302 313l40 173h-168l-42 -173h170z" />
    <glyph glyph-name="dollar" unicode="$" horiz-adv-x="526" 
d="M224 5l-9 1q-43 4 -80.5 23t-66.5 49t-46.5 68.5t-20.5 81.5h29q3 -37 18 -70.5t39.5 -59t56.5 -42t69 -20.5l11 -1v414l-8 2q-21 5 -40.5 16.5t-33.5 28.5t-22.5 37.5t-8.5 42.5q0 23 8 44.5t22 38.5t33.5 28.5t41.5 15.5l8 1v52h33v-52l8 -2q42 -9 69 -41t30 -74h-29
q-3 29 -20.5 50t-43.5 32l-14 6v-196l9 -2q44 -7 82 -28t66 -51.5t44.5 -70.5t16.5 -85t-16.5 -85t-44.5 -72t-66 -52.5t-82 -26.5l-9 -1v-48h-33v48zM224 675l-13 -4q-31 -9 -50.5 -35.5t-19.5 -59.5q0 -73 70 -93l13 -4v196zM269 36q38 6 70 24.5t56 46t37.5 62.5t13.5 73
t-13.5 73t-37.5 63t-56 46.5t-70 23.5l-12 2v-416z" />
    <glyph glyph-name="percent" unicode="%" horiz-adv-x="571" 
d="M116 372q-25 0 -46 9t-36.5 25t-24.5 37.5t-9 46.5t9 46.5t24.5 37t37 24.5t45.5 9t45.5 -9t37 -24.5t24.5 -37t9 -46.5t-9 -46.5t-24.5 -37.5t-37 -25t-45.5 -9zM15 491q0 -21 8 -39.5t22 -32.5t32.5 -22t39.5 -8t39.5 8t32 21.5t21.5 32.5t8 40q0 44 -29 73.5t-72 29.5
q-21 0 -39.5 -8t-32.5 -22t-22 -33t-8 -40zM357 573h19l-219 -426h-21zM404 125q-24 0 -45 9t-36.5 25t-24.5 37.5t-9 46.5t9 46.5t24.5 37t36.5 24.5t45 9t45.5 -9t37.5 -24.5t25 -37t9 -46.5t-9 -46.5t-25 -37.5t-37.5 -25t-45.5 -9zM304 244q0 -21 8 -39.5t21.5 -32.5
t32 -22t39.5 -8t39.5 8t32.5 22t22 32.5t8 39.5q0 44 -29 73.5t-73 29.5q-21 0 -39.5 -8t-32 -22t-21.5 -33t-8 -40z" />
    <glyph glyph-name="ampersand" unicode="&#x26;" horiz-adv-x="644" 
d="M217 259q23 33 44.5 51t45.5 26.5t52.5 10t64.5 1.5q20 2 37.5 4t33 7.5t30 15.5t29.5 26h40q-17 -26 -36.5 -42.5t-49.5 -30.5l-8 -3l2 -8q8 -34 8 -63q0 -54 -20 -101t-54.5 -82t-81.5 -55t-100 -20t-99 20t-80.5 55t-54.5 82t-20 101q0 71 34.5 131t94.5 95l8 6l-4 8
q-8 14 -11.5 30t-3.5 33q0 29 10.5 54.5t29 44.5t43.5 30t53 11q29 0 54 -11t44 -30t29.5 -44.5t10.5 -54.5q0 -17 -4 -30h-38q5 17 5 30q0 43 -29 73t-72 30q-21 0 -39 -8t-31.5 -22.5t-21.5 -33t-8 -39.5q0 -25 12 -47.5t33 -35.5q-35 -15 -64.5 -36t-51.5 -48.5t-34 -61
t-12 -74.5q0 -45 17 -85t46.5 -70t69 -47.5t84.5 -17.5q46 0 85.5 17t69 47t46.5 70t17 86q0 29 -6 54l-2 9l-9 -1q-5 -1 -9 -1h-60q-13 0 -25 -1t-23 -4q-23 -5 -43 -16.5t-38 -34.5h-40z" />
    <glyph glyph-name="parenleft" unicode="(" horiz-adv-x="246" 
d="M169 4q-77 80 -123 175t-46 208q0 120 44 221.5t125 187.5l27 -27q-77 -80 -118.5 -175t-41.5 -208q0 -105 45 -194t115 -161z" />
    <glyph glyph-name="parenright" unicode=")" horiz-adv-x="246" 
d="M0 31q70 72 115 161t45 194q0 113 -41.5 208t-118.5 175l26 27q82 -86 126 -187.5t44 -221.5q0 -113 -46 -208t-123 -175z" />
    <glyph glyph-name="asterisk" unicode="*" horiz-adv-x="409" 
d="M41 403l96 99h-137v34h137l-96 99l24 24l97 -97v138h35v-138l97 97l24 -24l-97 -99h138v-34h-138l97 -99l-24 -24l-97 98v-140h-35v140l-97 -99z" />
    <glyph glyph-name="plus" unicode="+" horiz-adv-x="516" 
d="M211 446h-211v38h211v213h37v-213h217v-38h-217v-219h-37v219z" />
    <glyph glyph-name="comma" unicode="," horiz-adv-x="214" 
d="M131 111h33l-135 -212h-29z" />
    <glyph glyph-name="period" unicode="." horiz-adv-x="102" 
d="M0 0v73h52v-73h-52z" />
    <glyph glyph-name="slash" unicode="/" horiz-adv-x="497" 
d="M411 800h35l-409 -800h-36z" />
    <glyph glyph-name="zero" unicode="0" horiz-adv-x="597" 
d="M273 -5q-67 0 -118 33t-85.5 84.5t-52 113.5t-17.5 120t18 120t52.5 113.5t85.5 84.5t117 33q67 0 118 -33t85.5 -84t52 -113t17.5 -121q0 -61 -18.5 -123.5t-53.5 -113t-85.5 -82.5t-115.5 -32zM33 346q0 -51 15 -107.5t45 -103t75 -77t105 -30.5t105.5 30.5t75.5 77.5
t45 103t15 107t-15 107t-45 103t-75 78t-106 31q-60 0 -105 -30.5t-75 -77.5t-45 -103.5t-15 -107.5z" />
    <glyph glyph-name="one" unicode="1" horiz-adv-x="131" 
d="M49 666h-49v31h80v-697h-31v666z" />
    <glyph glyph-name="two" unicode="2" horiz-adv-x="450" 
d="M301 528q9 18 9 38q0 41 -28 69t-68 28q-46 0 -71 -24t-25 -72q0 -13 3 -25h-35q-1 6 -1.5 12t-0.5 13q0 67 32 98.5t98 31.5q25 0 48.5 -9t42 -25t29.5 -38t11 -48q0 -20 -5.5 -35.5t-15.5 -33.5l-266 -477h341v-31h-398z" />
    <glyph glyph-name="three" unicode="3" horiz-adv-x="522" 
d="M35 191q8 -35 27 -64t45 -49.5t58.5 -32t67.5 -11.5q42 0 79.5 15.5t65.5 42.5t44 64.5t16 80.5q0 40 -13 73t-35.5 60.5t-51 50.5t-60.5 43q13 7 22.5 20.5t15.5 29t9 30.5t3 25q0 20 -7.5 37.5t-20.5 30.5t-30 20t-37 7q-94 0 -94 -95q0 -13 3 -25h-33q-2 7 -2 14v14
q0 65 31.5 95t94.5 30q26 0 49.5 -10t41 -27.5t28 -40.5t10.5 -50q0 -25 -9 -49.5t-26 -41.5l-9 -9l11 -7q64 -38 103 -93.5t39 -131.5q0 -50 -19 -93.5t-51 -75.5t-75.5 -50t-92.5 -18q-42 0 -80.5 14t-69.5 39.5t-52.5 60.5t-29.5 77h34z" />
    <glyph glyph-name="four" unicode="4" horiz-adv-x="548" 
d="M1 205l408 495v-458h89v-37h-89v-205h-41v205h-367zM366 242v351l-278 -351h278z" />
    <glyph glyph-name="five" unicode="5" horiz-adv-x="584" 
d="M35 186q13 -36 36 -64t53 -47.5t65 -30t72 -10.5q47 0 90.5 17.5t76.5 48t53 73t20 92.5t-19.5 92.5t-52.5 73t-76.5 48t-91.5 17.5h-137v204h205v-31h-174v-139h107q55 0 104 -20.5t86.5 -56t59.5 -84t22 -104.5q0 -57 -22 -105.5t-59.5 -84t-87 -55.5t-104.5 -20
q-44 0 -85 13.5t-75.5 37.5t-60 58.5t-39.5 76.5h34z" />
    <glyph glyph-name="six" unicode="6" horiz-adv-x="622" 
d="M213 571l33 5q9 1 19 1h19q58 0 110 -22t91.5 -60.5t62.5 -90.5t23 -111q0 -63 -22 -116.5t-61 -93t-92 -61.5t-115 -22q-58 0 -109 23t-89 62.5t-60.5 91.5t-22.5 110q0 62 24 117t69 97q54 50 106.5 98.5t106.5 97.5h45zM539 293q0 48 -18.5 92.5t-52 78.5t-80.5 54.5
t-104 20.5q-51 0 -96 -20.5t-78 -56t-52.5 -81.5t-19.5 -97q0 -54 21.5 -100t57 -80t81 -53.5t92.5 -19.5q45 0 89.5 21.5t80 57.5t57.5 83.5t22 99.5z" />
    <glyph glyph-name="seven" unicode="7" horiz-adv-x="545" 
d="M437 669h-437v31h495l-440 -700h-37z" />
    <glyph glyph-name="eight" unicode="8" horiz-adv-x="524" 
d="M153 473q-43 39 -43 96q0 26 10 49.5t27 41t40 27.5t49 10t49.5 -10t41 -27.5t27.5 -40.5t10 -50q0 -56 -43 -96l-13 -11l16 -6q34 -13 61.5 -35t47 -51t30 -63t10.5 -70q0 -49 -19 -92t-51.5 -75t-75.5 -51t-91 -19t-91 19t-75 51t-51 75t-19 92q0 76 39.5 134t110.5 85
l15 6zM142 569q0 -19 7.5 -36.5t20.5 -30t30 -20t36 -7.5t36 7.5t30 20t20.5 30t7.5 36.5q0 20 -7.5 37.5t-20 30t-29.5 20t-37 7.5q-19 0 -36 -7.5t-30 -20t-20.5 -30t-7.5 -37.5zM33 237q0 -42 16.5 -79t44 -64.5t64.5 -43.5t78 -16t78.5 16t65.5 43.5t44.5 64.5t16.5 79
t-16.5 79t-44.5 64.5t-65.5 43.5t-78.5 16t-78 -16t-64.5 -43.5t-44 -64.5t-16.5 -79z" />
    <glyph glyph-name="nine" unicode="9" horiz-adv-x="621" 
d="M360 125l-34 -6q-18 -3 -36 -3q-58 0 -110.5 21.5t-92.5 59.5t-63.5 89.5t-23.5 110.5q0 64 21.5 118.5t60.5 94t92.5 62t116.5 22.5q58 0 108.5 -23t88.5 -62.5t60 -91.5t22 -110v-14q0 -57 -25.5 -109.5t-67.5 -90.5q-53 -49 -103.5 -96.5t-104.5 -96.5h-45zM33 406
q0 -52 20.5 -98t55 -80t80.5 -53.5t97 -19.5t96.5 20.5t79 55.5t53 81.5t19.5 97.5q0 55 -20.5 101.5t-55.5 80.5t-81.5 53t-99.5 19q-52 0 -96.5 -21.5t-77.5 -57t-51.5 -82t-18.5 -97.5z" />
    <glyph glyph-name="colon" unicode=":" horiz-adv-x="102" 
d="M0 420v72h51v-72h-51zM0 0v73h52v-73h-52z" />
    <glyph glyph-name="semicolon" unicode=";" horiz-adv-x="234" 
d="M132 492h52v-72h-52v72zM131 111h33l-135 -212h-29z" />
    <glyph glyph-name="semicolon" unicode="&#x37e;" horiz-adv-x="234" 
d="M132 492h52v-72h-52v72zM131 111h33l-135 -212h-29z" />
    <glyph glyph-name="equal" unicode="=" horiz-adv-x="468" 
d="M0 493h417v-38h-417v38zM0 333h417v-38h-417v38z" />
    <glyph glyph-name="question" unicode="?" horiz-adv-x="539" 
d="M139 90h-30v44q0 53 39.5 81.5t95.5 31.5q53 2 103 30q50 29 81.5 78t31.5 105q0 54 -26 103t-75 79.5t-115 30.5q-61 0 -109.5 -30t-76 -78.5t-29.5 -100.5h-29q1 64 34.5 118t89 86t120.5 32q70 0 126 -32t87 -87t31 -121t-33.5 -121.5t-90 -87.5t-120.5 -32
q-41 -1 -73 -22t-32 -63v-44zM109 62h31v-62h-31v62z" />
    <glyph glyph-name="at" unicode="@" horiz-adv-x="772" 
d="M234 -9q-52 20 -95 54.5t-74 79.5t-48 98t-17 109q0 75 28.5 141.5t77.5 116t115 78.5t140 29q77 0 142.5 -29t114 -79t76 -117.5t27.5 -144.5q0 -21 -1.5 -51.5t-9.5 -59t-24.5 -48.5t-46.5 -20q-32 0 -59 18.5t-38 48.5l-7 19l-11 -17q-26 -43 -69.5 -67.5t-93.5 -24.5
q-40 0 -75.5 15.5t-61.5 42.5t-41.5 63t-15.5 76t15 75.5t41.5 62t61.5 42t74 15.5q95 0 154 -74l3 -4h38v-117q0 -20 1.5 -40t6 -38t13.5 -34.5t25 -30.5q7 -5 15 -9t18 -4q14 0 23 7.5t15 17.5q7 15 11 33t6.5 36.5t3 37t0.5 34.5q0 70 -26 131t-71 106.5t-105 72
t-129 26.5t-129.5 -26.5t-105 -72t-70.5 -106.5t-26 -131q0 -52 15.5 -100.5t43.5 -90t67.5 -73t87.5 -50.5zM197 320q0 -34 13 -64t35.5 -52.5t52 -35.5t63.5 -13t64 13t52.5 36t35.5 53.5t13 64.5t-13.5 64.5t-36 53t-52.5 35.5t-63 13q-34 0 -64 -13.5t-52.5 -36t-35 -53
t-12.5 -65.5z" />
    <glyph glyph-name="A" unicode="A" horiz-adv-x="667" 
d="M617 0h-37l-296 614l-246 -614h-38l284 700z" />
    <glyph glyph-name="B" unicode="B" horiz-adv-x="588" 
d="M384 480q75 -30 114.5 -87.5t39.5 -140.5q0 -125 -68 -188.5t-195 -63.5h-275v701h292q70 0 108 -34t38 -85q0 -31 -14.5 -58t-39.5 -44zM399 583q0 32 -30.5 58t-76.5 26h-258v-172h259q106 0 106 88zM276 31q69 0 121 26.5t80.5 76.5t28.5 116q0 100 -61.5 156.5
t-167.5 56.5h-243l-1 -432h243z" />
    <glyph glyph-name="C" unicode="C" horiz-adv-x="652" 
d="M602 521q-43 66 -109 104t-141 38q-82 0 -155.5 -38t-116.5 -114.5t-43 -147.5v-13q5 -95 45.5 -162.5t112 -109.5t153.5 -42q73 1 142 38t112 102v-59q-46 -55 -111 -86.5t-140 -31.5q-95 0 -176 47t-128 128t-47 176t47 175t127 127.5t175 47.5q77 0 142 -30.5
t111 -86.5v-62z" />
    <glyph glyph-name="D" unicode="D" horiz-adv-x="702" 
d="M269 700q383 -2 383 -350q0 -181 -102 -265.5t-281 -84.5h-269l1 700h268zM271 34q174 1 262 80t88 236q0 318 -350 318h-238v-634h238z" />
    <glyph glyph-name="E" unicode="E" horiz-adv-x="507" 
d="M457 700v-32h-425v-418h353v-31h-353v-188h425v-31h-457v700h457z" />
    <glyph glyph-name="F" unicode="F" horiz-adv-x="533" 
d="M483 700v-32h-455v-418h383v-31h-383v-218l-28 -1v700h483z" />
    <glyph glyph-name="G" unicode="G" horiz-adv-x="743" 
d="M0 352q0 95 47 176t128 128t176 47q81 0 152.5 -34.5t121 -95.5t68.5 -137h-38q-18 66 -62.5 118.5t-107 82.5t-133.5 30q-86 0 -158 -42.5t-114.5 -114.5t-42.5 -157q0 -86 42.5 -158t114.5 -114.5t158 -42.5q93 0 170 49t115 130h-405v31h456q-21 -72 -70.5 -128.5
t-119 -88t-147.5 -31.5q-95 0 -176 47.5t-128 128.5t-47 176z" />
    <glyph glyph-name="H" unicode="H" horiz-adv-x="634" 
d="M31 700v-450h522v450h31v-700h-31v219h-522v-219h-31v700h31z" />
    <glyph glyph-name="I" unicode="I" horiz-adv-x="84" 
d="M34 700v-700h-34v700h34z" />
    <glyph glyph-name="J" unicode="J" horiz-adv-x="389" 
d="M0 -169h5q93 0 161 36.5t104.5 104.5t36.5 161v567h32v-567q0 -109 -42.5 -184t-118 -112.5t-173.5 -37.5h-5v32z" />
    <glyph glyph-name="K" unicode="K" horiz-adv-x="495" 
d="M34 700v-435l284 435h36l-287 -439l378 -261h-46l-365 247v-247h-34v700h34z" />
    <glyph glyph-name="L" unicode="L" horiz-adv-x="563" 
d="M31 700v-669h482v-31h-513v700h31z" />
    <glyph glyph-name="M" unicode="M" horiz-adv-x="791" 
d="M350 586l58 113l333 -699h-37l-296 619l-37 -73l254 -546h-38l-237 506l-197 -506h-37l213 546l-37 73l-256 -619h-36l292 699z" />
    <glyph glyph-name="N" unicode="N" horiz-adv-x="593" 
d="M506 100v600h37v-700l-508 601l1 -601h-36v700z" />
    <glyph glyph-name="O" unicode="O" horiz-adv-x="753" 
d="M0 352q0 95 47 175t127.5 126.5t176.5 46.5t176.5 -46.5t128 -126.5t47.5 -175t-47.5 -176t-128.5 -128.5t-176 -47.5t-176 47.5t-128 128.5t-47 176zM35 353q0 -86 43 -158.5t115.5 -115.5t158.5 -43q85 0 157.5 43t115.5 115.5t43 158.5q0 85 -43 157t-115.5 114
t-157.5 42q-86 0 -158.5 -42t-115.5 -114t-43 -157z" />
    <glyph glyph-name="P" unicode="P" horiz-adv-x="536" 
d="M222 700q264 0 264 -253t-264 -253h-190v-194h-32v700h222zM453 447q0 104 -52.5 163t-178.5 59h-190v-445h190q119 0 175 58.5t56 164.5z" />
    <glyph glyph-name="Q" unicode="Q" horiz-adv-x="753" 
d="M0 352q0 95 47 175t127.5 126.5t176.5 46.5t176.5 -46.5t128 -126.5t47.5 -175q0 -90 -42 -167t-114.5 -126t-160.5 -57q25 -25 47.5 -34.5t51.5 -9.5h154v-31h-137q-55 0 -89.5 14t-66.5 59q-94 1 -173.5 49t-126 128.5t-46.5 174.5zM36 353q0 -86 42.5 -159t115.5 -116
t158 -43t157.5 43t115 116t42.5 159q0 85 -42.5 156.5t-115 113.5t-157.5 42q-86 0 -158.5 -42t-115 -113.5t-42.5 -156.5z" />
    <glyph glyph-name="R" unicode="R" horiz-adv-x="537" 
d="M487 448q0 -117 -67 -172t-200 -55h-14l203 -221h-41l-230 249q135 0 196.5 17.5t92 61.5t30.5 120q0 105 -58.5 164.5t-175.5 59.5h-192v-672h-31v701h223q264 0 264 -253z" />
    <glyph glyph-name="S" unicode="S" horiz-adv-x="538" 
d="M244 481q64 -1 120.5 -32.5t90 -87t33.5 -121.5t-31 -121t-87 -87t-126 -32q-65 0 -120.5 32t-89 86t-34.5 118h29q2 -52 29.5 -100.5t76 -78.5t109.5 -30q66 0 115 30.5t75 79.5t26 103q0 56 -31.5 105t-81.5 77.5t-103 30.5q-57 2 -96 31t-39 82q1 57 37.5 95.5
t97.5 38.5t97.5 -38t36.5 -93v-3h-28q0 41 -26.5 73t-79.5 32t-79 -32t-26 -73q0 -42 32 -63.5t73 -21.5z" />
    <glyph glyph-name="T" unicode="T" horiz-adv-x="577" 
d="M527 671h-237v-671h-34v671h-256v29h527v-29z" />
    <glyph glyph-name="U" unicode="U" horiz-adv-x="690" 
d="M640 356q0 -97 -43.5 -179.5t-117 -131t-159.5 -48.5t-159.5 48.5t-117 131t-43.5 180.5v343h30v-343q0 -82 41.5 -159.5t109 -126t139.5 -48.5t139.5 48t109.5 125.5t42 159.5v344h29v-344z" />
    <glyph glyph-name="V" unicode="V" horiz-adv-x="768" 
d="M36 700l313 -631l330 631h39l-369 -702l-349 702h36z" />
    <glyph glyph-name="W" unicode="W" horiz-adv-x="801" 
d="M302 81l37 73l-223 546h37l207 -506l237 506h38l-254 -546l37 -73l296 619h37l-333 -699l-58 113l-58 -113l-302 699h36z" />
    <glyph glyph-name="X" unicode="X" horiz-adv-x="639" 
d="M457 0h-33l-130 204l-119 -204h-33l133 234l-275 466h34l265 -445l260 445h30l-274 -476z" />
    <glyph glyph-name="Y" unicode="Y" horiz-adv-x="606" 
d="M0 700h38l240 -436l242 436h36l-259 -480v-220h-36v220z" />
    <glyph glyph-name="Z" unicode="Z" horiz-adv-x="579" 
d="M65 31h464v-31h-525l439 665h-443v35h510z" />
    <glyph glyph-name="bracketleft" unicode="[" horiz-adv-x="140" 
d="M0 800h89v-41h-53v-719h53v-40h-89v800z" />
    <glyph glyph-name="backslash" unicode="\" horiz-adv-x="497" 
d="M1 800h36l409 -800h-35z" />
    <glyph glyph-name="bracketright" unicode="]" horiz-adv-x="140" 
d="M0 40h54v719h-54v41h89v-800h-89v40z" />
    <glyph glyph-name="underscore" unicode="_" horiz-adv-x="815" 
d="M0 -21h765v-36h-765v36z" />
    <glyph glyph-name="a" unicode="a" 
d="M0 252q0 68 34 125t91.5 90t125.5 33t126 -33t92 -90t34 -125v-252h-34v125q-74 -125 -218 -125q-68 0 -125.5 34t-91.5 92t-34 126zM251 36q59 0 109 28.5t78.5 78.5t28.5 109q0 58 -28.5 107t-78.5 77.5t-109 28.5t-108.5 -28.5t-78.5 -77.5t-29 -107q0 -59 29 -109
t78.5 -78.5t108.5 -28.5z" />
    <glyph glyph-name="b" unicode="b" 
d="M34 379q73 124 217 124q68 0 126 -34t92 -91.5t34 -125.5t-34 -126t-92 -92t-126 -34t-125.5 34t-91.5 92t-34 126v448h34v-321zM251 468q-59 0 -108.5 -29t-78.5 -78.5t-29 -108.5t29 -108.5t78.5 -78.5t108.5 -29t108.5 29t78.5 78.5t29 108.5t-29 108.5t-78.5 78.5
t-108.5 29z" />
    <glyph glyph-name="c" unicode="c" horiz-adv-x="458" 
d="M408 52q-62 -52 -157 -52q-68 0 -125.5 34t-91.5 92t-34 126t34 125.5t91.5 91.5t125.5 34q89 0 154 -52l-24 -25q-53 42 -130 42q-59 0 -108.5 -29t-78.5 -78.5t-29 -108.5t29 -108.5t78 -78.5t107 -29q72 0 138 45z" />
    <glyph glyph-name="d" unicode="d" 
d="M469 700h34v-448q0 -68 -34 -126t-92 -92t-126 -34t-126 34t-91.5 92t-33.5 126t33.5 125.5t91.5 91.5t126 34q143 0 218 -124v321zM251 468q-59 0 -108.5 -29t-78.5 -78.5t-29 -108.5t29 -108.5t78.5 -78.5t108.5 -29t108.5 29t78.5 78.5t29 108.5t-29 108.5t-78.5 78.5
t-108.5 29z" />
    <glyph glyph-name="e" unicode="e" horiz-adv-x="541" 
d="M52 324q-15 -30 -15 -74q1 -57 29.5 -106.5t76.5 -78.5t105 -29q155 0 203 147h40q-51 -183 -241 -183q-68 0 -125.5 33.5t-91 91t-33.5 125.5t33.5 125.5t91 91t125.5 33.5q169 0 240 -176h-438zM433 358q-58 106 -183 106t-183 -106h366z" />
    <glyph glyph-name="f" unicode="f" horiz-adv-x="301" 
d="M35 366h152v-36h-152v-330h-35v448q0 68 34 126t91.5 92t125.5 34v-35q-59 0 -108.5 -29t-78.5 -79t-29 -109v-82z" />
    <glyph glyph-name="g" unicode="g" horiz-adv-x="443" 
d="M0 303q0 53 26.5 98.5t71.5 72t99 26.5q53 0 98 -26.5t71.5 -72t26.5 -98.5t-23.5 -96.5t-63.5 -70t-88 -30.5v-43q43 -8 71 -41t28 -76q0 -50 -35 -85t-85 -35t-85.5 35.5t-35.5 84.5q0 43 29 76t71 41v43q-50 4 -90 30.5t-63 70t-23 96.5zM37 312q0 -77 43.5 -123.5
t115.5 -46.5q70 0 114.5 45t45.5 116q0 70 -45 115t-115 45q-45 0 -81 -21.5t-57 -56t-21 -73.5zM112 -54q0 -34 24 -59.5t60 -25.5t60.5 24t24.5 60t-24.5 60t-60.5 24t-60 -26t-24 -57z" />
    <glyph glyph-name="h" unicode="h" 
d="M503 0h-36v250q0 59 -28.5 108.5t-78.5 78.5t-109 29q-58 0 -107.5 -29t-79 -78.5t-29.5 -108.5v-250h-35v700h34v-323q73 124 217 124q68 0 126 -34t92 -91.5t34 -125.5v-250z" />
    <glyph glyph-name="i" unicode="i" horiz-adv-x="84" 
d="M34 700v-91h-34v91h34zM34 501v-501h-34v501h34z" />
    <glyph glyph-name="j" unicode="j" horiz-adv-x="301" 
d="M251 700v-91h-35v91h35zM216 500h35v-248q0 -68 -34 -126t-91.5 -92t-125.5 -34v36q59 0 108.5 29t78.5 78.5t29 108.5v248z" />
    <glyph glyph-name="k" unicode="k" horiz-adv-x="461" 
d="M256 0h-55l-165 154v-155h-36v501h36v-344l324 344h51l-323 -343z" />
    <glyph glyph-name="l" unicode="l" horiz-adv-x="84" 
d="M34 700v-700h-34v700h34z" />
    <glyph glyph-name="m" unicode="m" horiz-adv-x="866" 
d="M0 244q0 70 31 129.5t84 94t115 34.5q108 0 178 -95q83 95 178 95q62 0 115 -34.5t84 -94t31 -129.5v-244h-36v244q0 59 -24.5 110t-68.5 81.5t-99 30.5q-97 0 -159 -92q31 -58 31 -130v-244h-36v244q0 50 -16 89q-16 -39 -16 -89v-244h-36v244q0 72 30 129
q-29 44 -70 67t-86 23q-38 0 -73.5 -16.5t-63.5 -47.5q-57 -64 -57 -155v-244h-36v244z" />
    <glyph glyph-name="n" unicode="n" horiz-adv-x="508" 
d="M0 244q0 70 31 129t83.5 93.5t114.5 34.5t114.5 -35t83.5 -94t31 -129v-243h-35v243q0 59 -26.5 109t-71 79.5t-96.5 29.5t-96.5 -29t-70.5 -79t-26 -109v-244h-36v244z" />
    <glyph glyph-name="o" unicode="o" horiz-adv-x="548" 
d="M249 500q67 0 124.5 -33.5t91 -91t33.5 -124.5q0 -68 -33.5 -125t-91 -90.5t-124.5 -33.5q-68 0 -125 33.5t-90.5 90.5t-33.5 125q0 67 33.5 124.5t90.5 91t125 33.5zM249 37q58 0 107 28.5t78 78t29 107.5t-29 107t-78 78t-107 29t-107.5 -29t-78 -78t-28.5 -107
q0 -59 28.5 -108t77.5 -77.5t108 -28.5z" />
    <glyph glyph-name="p" unicode="p" 
d="M34 -200h-34v451q0 68 34 125.5t91.5 91t125.5 33.5t126 -33.5t92 -91t34 -125.5t-34 -126t-92 -92t-126 -34q-144 0 -217 124v-323zM251 34q59 0 108.5 29.5t78.5 79t29 108.5t-29 108t-78.5 77.5t-108.5 28.5t-108.5 -28.5t-78.5 -77.5t-29 -108t29 -108.5t79 -79
t108 -29.5z" />
    <glyph glyph-name="q" unicode="q" 
d="M469 121q-73 -124 -218 -124q-68 0 -125.5 34t-91.5 91.5t-34 125.5t34 126t91.5 92t125.5 34t126 -34t92 -92t34 -126v-448h-34v321zM251 32q59 0 109 29t79 78.5t29 108.5t-29 108.5t-79 78.5t-109 29t-108.5 -29t-78.5 -78.5t-29 -108.5t29 -108.5t78.5 -78.5
t108.5 -29z" />
    <glyph glyph-name="r" unicode="r" horiz-adv-x="301" 
d="M251 466q-59 -1 -108.5 -31t-78.5 -79.5t-29 -107.5v-248h-34l-1 248q0 68 33.5 126t91.5 92t126 35v-35z" />
    <glyph glyph-name="s" unicode="s" horiz-adv-x="398" 
d="M174 344q57 -3 96 -27.5t58.5 -62t19.5 -78.5q0 -48 -23 -88.5t-63 -64t-88 -23.5q-47 0 -86.5 23t-63 61.5t-24.5 84.5h35q1 -36 20 -67t50.5 -49t68.5 -18q38 0 70 18.5t50.5 50t18.5 68.5t-18.5 68.5t-50.5 50t-70 18.5q-23 0 -45.5 13t-36.5 35t-14 47q0 40 28 68
t68 28t68 -28t28 -68h-35q0 26 -17.5 43.5t-43.5 17.5q-25 0 -43 -17.5t-18 -43.5q0 -24 17.5 -41t43.5 -19z" />
    <glyph glyph-name="t" unicode="t" horiz-adv-x="301" 
d="M35 252q0 -59 29 -108.5t78.5 -78.5t108.5 -29v-36q-68 0 -125.5 34t-91.5 92t-34 126v448h35v-330h152v-36h-152v-82z" />
    <glyph glyph-name="u" unicode="u" horiz-adv-x="508" 
d="M0 500h35v-243q0 -59 26.5 -109t71 -79t96.5 -29t96.5 29t71 79.5t26.5 109.5v242h35v-242q0 -70 -31 -129.5t-83.5 -94t-114.5 -34.5t-114.5 34.5t-83.5 93.5t-31 129v243z" />
    <glyph glyph-name="v" unicode="v" horiz-adv-x="576" 
d="M44 500l219 -414l218 414h45l-238 -454l-25 -46l-263 500h44z" />
    <glyph glyph-name="w" unicode="w" horiz-adv-x="687" 
d="M319 114l-58 -113l-261 498h42l219 -418l37 73l-181 345h42l160 -305l160 305h42l-181 -345l37 -73l218 418h42l-260 -498z" />
    <glyph glyph-name="x" unicode="x" horiz-adv-x="479" 
d="M327 0h-43l-69 122l-69 -122h-44l91 160l-193 340h43l172 -302l170 302h44l-193 -340z" />
    <glyph glyph-name="y" unicode="y" horiz-adv-x="471" 
d="M0 500h37v-264q0 -47 23.5 -93.5t64 -76t86.5 -29.5q44 0 84 25.5t64.5 68t24.5 92.5v277h37v-464q0 -64 -28 -118t-76 -86t-104 -32q-72 0 -129 48.5t-77 129.5h38q18 -62 64 -100.5t102 -39.5q46 0 86 27t63.5 72.5t23.5 98.5v67q-27 -48 -73.5 -76t-99.5 -28
q-57 0 -105.5 32t-77 86.5t-28.5 118.5v264z" />
    <glyph glyph-name="z" unicode="z" horiz-adv-x="430" 
d="M379 37v-37h-376l307 464h-310v36h380l-307 -463h306z" />
    <glyph glyph-name="braceleft" unicode="{" horiz-adv-x="200" 
d="M149 -80q-15 3 -33.5 8.5t-35.5 14.5t-28.5 22t-11.5 32v249q0 20 -12.5 35.5t-26.5 26.5q14 11 26.5 26t12.5 35v252q0 19 11.5 32t28.5 21.5t35.5 13.5t33.5 8v-28q-8 -2 -19.5 -3.5t-22.5 -5.5q-13 -5 -26.5 -14t-13.5 -26v-250q0 -33 -31 -53l-13 -8l13 -9
q31 -20 31 -53v-249q0 -13 9 -22t21.5 -14.5t27 -8.5t24.5 -4v-28z" />
    <glyph glyph-name="bar" unicode="|" horiz-adv-x="91" 
d="M0 697h41v-902h-41v902z" />
    <glyph glyph-name="braceright" unicode="}" horiz-adv-x="199" 
d="M0 -52q11 1 25 4t26.5 8.5t21.5 14.5t9 22v249q0 34 31 53l14 9l-14 8q-31 20 -31 53v250q0 17 -13.5 26t-26.5 14q-11 4 -22.5 5.5t-19.5 3.5v28q15 -3 33.5 -7.5t35.5 -13.5t28.5 -22t11.5 -32v-252q0 -20 12.5 -35.5t26.5 -25.5q-14 -11 -26.5 -26.5t-12.5 -35.5v-249
q0 -19 -11.5 -32t-28.5 -22t-35.5 -14.5t-33.5 -8.5v28z" />
    <glyph glyph-name="exclamdown" unicode="&#xa1;" horiz-adv-x="82" 
d="M0 697h31v-72h-31v72zM1 572h31v-572h-31v572z" />
    <glyph glyph-name="sterling" unicode="&#xa3;" horiz-adv-x="520" 
d="M446 27v-27h-420q17 83 57 154q5 8 11 18.5t13 22.5q6 12 11.5 25t5.5 24t-3.5 21.5t-8.5 19.5t-11 17t-11 16l-3 4h-87v24h73l-8 15q-12 22 -19.5 45t-7.5 46q0 25 7 51t18 49q13 32 33 58.5t45.5 45.5t56 30t64.5 11q48 0 86 -10t65 -32t41.5 -57t14.5 -85
q0 -39 -23 -73h-40q13 15 21.5 33t8.5 40q0 42 -14 71t-38 47t-56 25.5t-68 7.5q-30 0 -56.5 -11t-48.5 -29t-38.5 -42t-26.5 -51q-7 -18 -13 -39.5t-6 -42.5q0 -25 13.5 -52.5t24.5 -45.5l3 -5h90v-24h-72l15 -31q4 -8 7 -17q7 -14 7 -32q0 -5 -1 -8q0 -3 -0.5 -5.5
t-1.5 -5.5q0 -1 -1 -2q-1 -2 -2 -4.5t-3 -5.5q-3 -7 -7 -14.5t-8 -15.5q-8 -16 -15.5 -30t-9.5 -17q-12 -20 -21 -47q-3 -8 -6 -17l-4 -12q-3 -9 -6 -17l-5 -14h378z" />
    <glyph glyph-name="yen" unicode="&#xa5;" horiz-adv-x="581" 
d="M123 148h127v72l-7 7h-120v30h107l-229 440h35l230 -449l231 449h33l-227 -440h102v-30h-116l-7 -7v-72h123v-31h-123v-117h-32v117h-127v31z" />
    <glyph glyph-name="copyright" unicode="&#xa9;" horiz-adv-x="743" 
d="M0 347q0 73 27 137t74 111t110.5 74.5t135.5 27.5q71 0 134 -27.5t110 -75t74.5 -111.5t27.5 -136t-27.5 -136t-74.5 -112t-110 -75.5t-134 -27.5q-72 0 -135 27.5t-110 75.5t-74.5 112t-27.5 136zM36 349q0 -65 25 -123t67.5 -101.5t100 -68.5t121.5 -25q65 0 122 25
t99.5 68.5t67.5 101.5t25 123t-25 123t-67.5 101.5t-99.5 68.5t-122 25q-64 0 -121.5 -25t-100 -68.5t-67.5 -101.5t-25 -123zM559 292q-12 -35 -31.5 -64t-46.5 -49.5t-59.5 -32t-69.5 -11.5q-45 0 -84.5 17.5t-69 47.5t-46.5 70t-17 85t17 85t46.5 70t69 47t84.5 17
q37 0 70 -12t60 -33.5t47 -51.5t31 -65h-30q-10 30 -27 54.5t-40 42t-51 27.5t-60 10q-39 0 -73.5 -15t-60 -41t-40.5 -61t-15 -74t15 -74t40.5 -61t60 -41t73.5 -15q61 0 108.5 35.5t68.5 92.5h30z" />
    <glyph glyph-name="registered" unicode="&#xae;" horiz-adv-x="754" 
d="M0 349q0 74 28 137.5t76 110.5t112 73.5t136 26.5t136 -26.5t111.5 -73.5t75.5 -110.5t28 -137.5t-27.5 -139t-75 -113t-111.5 -76t-137 -28t-137 28t-112 76t-75.5 113t-27.5 139zM36 351q0 -66 25 -125t68.5 -102.5t101.5 -69t124 -25.5q65 0 123 25.5t101.5 69
t68.5 102.5t25 125q0 67 -25.5 124.5t-69 100t-101 66.5t-122.5 24q-66 0 -124 -24t-101.5 -66t-68.5 -99.5t-25 -125.5zM232 555h130q21 0 39.5 -5t37.5 -15q41 -20 59.5 -52t18.5 -78q0 -36 -13.5 -66.5t-42.5 -51.5q-16 -11 -33.5 -19t-35.5 -10l-21 -2l119 -116h-38
l-119 115h-76v-115h-25v415zM362 281q27 0 50.5 9t40.5 25t27 39t10 51q0 58 -36.5 91.5t-91.5 33.5h-105v-249h105z" />
    <glyph glyph-name="multiply" unicode="&#xd7;" horiz-adv-x="429" 
d="M156 502l-156 158l34 33l156 -158l156 158l33 -33l-156 -158l156 -158l-33 -34l-156 158l-156 -158l-34 34z" />
    <glyph glyph-name="quoteleft" unicode="&#x2018;" horiz-adv-x="214" 
d="M1 697h31l131 -211h-28z" />
    <glyph glyph-name="quoteright" unicode="&#x2019;" horiz-adv-x="213" 
d="M130 697h33l-135 -211h-28z" />
    <glyph glyph-name="quotesinglbase" unicode="&#x201a;" horiz-adv-x="214" 
d="M131 111h33l-135 -212h-29z" />
    <glyph glyph-name="fraction" unicode="&#x2044;" horiz-adv-x="493" 
d="M406 790h36l-405 -790h-36z" />
    <glyph glyph-name="fraction" unicode="&#x2215;" horiz-adv-x="493" 
d="M406 790h36l-405 -790h-36z" />
    <glyph glyph-name="Euro" unicode="&#x20ac;" horiz-adv-x="879" 
d="M9 289h138l-1 11q-1 11 -1.5 22t-0.5 22v19q0 9 2 19l2 12h-148l9 30h143l2 7q33 136 117.5 201t221.5 65q59 0 112 -18.5t97.5 -52t77 -80t49.5 -102.5h-37q-16 49 -45.5 89t-69 68.5t-86.5 44.5t-98 16q-116 0 -192 -55.5t-110 -169.5l-4 -13h173l-9 -30h-168l-1 -9
q-4 -19 -4 -41q0 -26 4 -46l1 -9h177l-9 -30h-162l4 -14q16 -50 45.5 -90.5t69 -69t87 -44t98.5 -15.5q50 0 96.5 15t85.5 42.5t68.5 66t45.5 86.5h37q-17 -54 -50 -99.5t-77 -78t-96.5 -50.5t-109.5 -18q-59 0 -113.5 19t-99.5 53t-77.5 82.5t-47.5 106.5l-2 8h-153z" />
    <glyph glyph-name="trademark" unicode="&#x2122;" horiz-adv-x="932" 
d="M171 679h-171v17h362v-17h-173v-475h-18v475zM439 668l223 -421l219 420v-463h-19v399l-202 -388l-203 384v-395h-18v464z" />
    </font>
</defs>
</svg>
